<?xml version="1.0" encoding="UTF-8"?>
<svg id="Layer_1" data-name="Layer 1" xmlns="http://www.w3.org/2000/svg" viewBox="0 0 403.7 219.36">
  <defs>
    <linearGradient id="gradient" x1="0%" y1="0%" x2="100%" y2="0%" gradientUnits="userSpaceOnUse">
      <stop offset="0%" style="stop-color:#0284c7"/> <!-- primary-600 -->
      <stop offset="100%" style="stop-color:#7c3aed"/> <!-- secondary-600 -->
    </linearGradient>
  </defs>
  <g fill="url(#gradient)">
    <path d="M48.89,69.64c8.97,0,16.49.06,24.02-.01,38.07-.38,76.14-.74,114.21-1.23,26.26-.33,51.76,4.15,76.8,11.82,1.88.58,3.83.95,5.78,1.27,1.43.24,2.89.23,4.34.33.24-.4.48-.79.72-1.19-2.77-2.01-5.3-4.59-8.36-5.95-20.46-9.1-41.75-15.15-64.1-17.26-45.11-4.25-90.26-1.01-135.39-.7C31.84,56.97,12.64,38.87.18,10.84c-.18-.41-.13-.93-.18-1.35,23.29.47,46.49.77,69.69,1.47,20.26.61,40.55,1.09,60.74,2.67,49.16,3.85,95.01,17.13,132.75,51.21,8.29,7.49,15.49,16.22,24.22,25.47-2.82,0-4.47.07-6.12-.01-10.03-.52-20.06-1.35-30.1-1.56-23.49-.49-46.69,2.42-69.62,7.29-20.1,4.28-40,9.51-60.13,13.67-19.48,4.03-36.4-2.83-51.44-14.82-8.29-6.61-14.47-15.27-21.11-25.25Z" style="stroke-width: 0px;"/>
    <path d="M309.3,107.57c-6.91-24.95-18.9-45.81-41.41-59.11,8.98-3.72,17.38-7.19,25.78-10.66-.14-.8-.29-1.6-.43-2.41-3.47,0-6.97.3-10.41-.06-7.16-.77-14.58-.93-21.37-3.05-15.64-4.87-25.08-16.39-30.19-32.28.75.07,1.41-.07,1.83.19,14.88,9.21,31.57,9.68,48.22,10.17,17.3.51,34.61.61,51.9,1.28,11.97.47,23.68,2.22,32.78,11.44,7.45,7.55,8.55,14.65,4.43,24.5-2.98,7.11-5.08,14.6-7.88,21.8-.55,1.42-2.31,2.62-3.79,3.37-7.25,3.67-14.1,7.73-19.45,14.18-6.5,7.84-9.45,17.32-13.1,26.52-3.84,9.66-7.3,19.51-11.82,28.84-3.21,6.62-7.84,12.54-11.93,18.7-13.36,20.09-32.67,32.26-54.11,41.75-10.49,4.65-21.32,7.57-33.76,9.33,4.15-4.94,7.92-8.82,11.01-13.18,15.02-21.25,29.86-42.63,44.76-63.97.95-1.36,1.98-2.69,2.71-4.17,6.71-13.56,18.06-20.14,32.45-22.22,1.09-.16,2.15-.53,3.78-.95ZM341.2,33.47c0,.06,0,.13-.01.19-1.8-.11-3.64-.5-5.39-.23-1.24.19-3.2,1.07-3.39,1.96-1.25,5.94.04,11.57,3.42,16.54,2.96,4.36,7.55,4.97,12.29,4.47,4.75-.5,10.3-7.38,10.35-12.51.04-4.77-3.86-8.96-9.43-9.84-2.58-.41-5.23-.4-7.84-.58Z" style="stroke-width: 0px;"/>
    <path d="M114.31,125.21c8.98-2.43,17.89-5.21,26.96-7.23,27.59-6.14,55.05-13.28,82.94-17.52,20.19-3.07,40.98-2.24,61.51-2.87,2.46-.08,4.98,1.61,7.35,3.06-24.44,3.45-45.35,15.97-67.69,24.45-12.75,4.84-25.28,10.55-38.37,14.15-19.69,5.41-39.16,2.48-57.9-5.32-5.16-2.15-10.16-4.7-15.24-7.06.14-.56.29-1.12.43-1.67Z" style="stroke-width: 0px;"/>
    <path d="M55.82,177.07c8.03-.95,14.95-1.92,21.9-2.56,30.35-2.83,60.23-8.27,89.68-16.19,11.72-3.15,23.7-5.38,35.28-8.96,9.07-2.8,17.71-7.03,26.55-10.63,2.07-.84,4.14-1.68,6.24-2.35-33.07,24-67.03,46.51-105.88,59.53-25.25,8.46-49.04,4.38-69.44-14.12-1.29-1.17-2.38-2.58-4.34-4.73Z" style="stroke-width: 0px;"/>
    <path d="M270.61,120.99c-6.26,7.89-12.6,15.72-18.76,23.69-9.91,12.83-19.28,26.12-29.69,38.52-8.05,9.6-16.98,18.55-26.18,27.04-7.16,6.61-16.54,8.87-26.09,9.08-12.55.28-24.96-1.09-36.86-5.49-1.76-.65-3.37-1.7-5.79-2.95,1.43-.88,2-1.39,2.66-1.6,31.83-10.39,60.21-27.25,86.58-47.69,7.92-6.14,16.56-12.18,22.28-20.16,8.16-11.39,21.04-13.77,30.94-21.47.3.34.61.68.91,1.03Z" style="stroke-width: 0px;"/>
    <path d="M395.63,89.75c-1.88-12.49-7.29-16.72-25.55-19.74,2.15-5.31,4.19-10.42,6.27-15.51,2.04-4.99,4.11-9.97,6.2-15.02,21.39,7.25,28.03,30.86,13.08,50.26Z" style="stroke-width: 0px;"/>
  </g>
</svg>